# File created by Blade
# Date/Time:  Wed Apr 08 17:04:22 2015
# Frame Rate: 120.000 fps
#------------------------------------------------------
:FULLY-SPECIFIED
:DEGREES
1940
root 3.644364 36.247897 2.546610 -134.680128 -87.241100 160.610454
Spine -25.436564 0.606325 -4.205448
Head 7.940343 8.126414 2.707236
LeftShoulder -5.600954 11.714871 30.972626
LeftArm 11.328203 -36.056801 -34.342276
LeftForeArm 23.331098 -0.000000 2.621960
LeftHand -11.660688 -0.000000 -13.193719
LeftHandThumb1 -26.253704 0.000000 33.147579
RightShoulder -19.967943 -41.785293 -17.995317
RightArm 50.316301 45.081056 47.374438
RightForeArm 5.062406 -0.000000 -1.009836
RightHand -1.368619 0.000000 16.433920
RightHandThumb1 -24.326973 -0.000000 -32.862282
LeftUpLeg -26.626019 10.434153 0.451711
LeftLeg 12.223202 -0.000000 -0.000000
LeftFoot -11.497281 7.687919 -14.813053
LeftToeBase 8.267298 -0.000000 -0.000000
RightUpLeg -26.939387 -6.629132 -5.522281
RightLeg 10.620605 -0.000000 -0.000000
RightFoot -11.492587 -1.509640 19.456578
RightToeBase 14.023473 -0.000000 -0.000000
1941
root 3.645751 36.248701 2.548732 -134.570118 -87.243454 160.499071
Spine -25.432695 0.604286 -4.203287
Head 7.925342 8.094013 2.704466
LeftShoulder -5.590930 11.711948 30.980966
LeftArm 11.316325 -36.039590 -34.341290
LeftForeArm 23.302743 -0.000000 2.615176
LeftHand -11.647503 -0.000000 -13.195882
LeftHandThumb1 -26.253704 0.000000 33.147579
RightShoulder -19.961641 -41.776206 -18.009294
RightArm 50.341225 45.095680 47.400483
RightForeArm 5.110091 -0.000000 -0.989741
RightHand -1.352448 -0.000000 16.453230
RightHandThumb1 -24.326973 -0.000000 -32.862282
LeftUpLeg -26.627585 10.436514 0.444183
LeftLeg 12.220439 -0.000000 -0.000000
LeftFoot -11.482923 7.670678 -14.819853
LeftToeBase 8.260573 -0.000000 -0.000000
RightUpLeg -26.940596 -6.644928 -5.521207
RightLeg 10.620585 -0.000000 -0.000000
RightFoot -11.484016 -1.512082 19.454187
RightToeBase 13.969540 -0.000000 -0.000000
1942
root 3.646683 36.249362 2.550031 -134.325942 -87.253667 160.252586
Spine -25.426328 0.587333 -4.202458
Head 7.911975 8.059129 2.707545
LeftShoulder -5.572693 11.687105 30.989510
LeftArm 11.253849 -36.001071 -34.307102
LeftForeArm 23.284275 -0.000000 2.641487
LeftHand -11.653837 -0.000000 -13.268349
LeftHandThumb1 -26.253704 0.000000 33.147579
RightShoulder -19.920705 -41.740463 -18.047065
RightArm 50.319536 45.097424 47.394316
RightForeArm 5.101965 -0.000000 -0.961449
RightHand -1.490136 -0.000000 16.466462
RightHandThumb1 -24.326973 -0.000000 -32.862282
LeftUpLeg -26.625601 10.421615 0.440572
LeftLeg 12.212824 -0.000000 -0.000000
LeftFoot -11.473171 7.673189 -14.816847
LeftToeBase 8.262003 -0.000000 -0.000000
RightUpLeg -26.935049 -6.658474 -5.525199
RightLeg 10.616389 -0.000000 -0.000000
RightFoot -11.480536 -1.521106 19.453419
RightToeBase 13.935580 -0.000000 -0.000000
1943
root 3.647595 36.250226 2.552133 -134.226319 -87.254382 160.152064
Spine -25.420118 0.581056 -4.197949
Head 7.892336 8.033391 2.696691
LeftShoulder -5.562216 11.693685 30.988149
LeftArm 11.225426 -36.008523 -34.294362
LeftForeArm 23.254823 -0.000000 2.656678
LeftHand -11.666491 -0.000000 -13.262221
LeftHandThumb1 -26.253704 0.000000 33.147579
RightShoulder -19.902889 -41.725349 -18.064600
RightArm 50.373909 45.147896 47.454781
RightForeArm 5.070714 -0.000000 -0.959664
RightHand -1.486663 -0.000000 16.506140
RightHandThumb1 -24.326973 -0.000000 -32.862282
LeftUpLeg -26.624660 10.420906 0.430855
LeftLeg 12.206594 -0.000000 -0.000000
LeftFoot -11.460515 7.675573 -14.813636
LeftToeBase 8.247504 -0.000000 -0.000000
RightUpLeg -26.934714 -6.662721 -5.530761
RightLeg 10.615037 -0.000000 -0.000000
RightFoot -11.470776 -1.525567 19.441336
RightToeBase 13.974350 -0.000000 -0.000000
1944
root 3.648641 36.250602 2.553656 -134.053082 -87.262628 159.977356
Spine -25.411717 0.565391 -4.194602
Head 7.862457 8.011200 2.708589
LeftShoulder -5.556700 11.693488 30.997267
LeftArm 11.195286 -36.007874 -34.290783
LeftForeArm 23.233129 -0.000000 2.683674
LeftHand -11.656350 -0.000000 -13.252495
LeftHandThumb1 -26.253704 0.000000 33.147579
RightShoulder -19.876303 -41.690201 -18.095961
RightArm 50.347717 45.132897 47.426225
RightForeArm 5.126752 -0.000000 -0.975209
RightHand -1.271379 -0.000000 16.470604
RightHandThumb1 -24.326973 -0.000000 -32.862282
LeftUpLeg -26.625555 10.421052 0.424117
LeftLeg 12.201714 -0.000000 -0.000000
LeftFoot -11.450118 7.662799 -14.800206
LeftToeBase 8.250691 -0.000000 -0.000000
RightUpLeg -26.932100 -6.665045 -5.534715
RightLeg 10.612006 -0.000000 -0.000000
RightFoot -11.475333 -1.547621 19.434486
RightToeBase 13.994526 -0.000000 -0.000000
1945
root 3.649653 36.250898 2.555269 -133.949283 -87.268879 159.872807
Spine -25.401229 0.561693 -4.191407
Head 7.812836 7.956301 2.696902
LeftShoulder -5.550115 11.685709 31.001712
LeftArm 11.171876 -36.009985 -34.284628
LeftForeArm 23.196093 0.000000 2.697809
LeftHand -11.637381 -0.000000 -13.226077
LeftHandThumb1 -26.253704 0.000000 33.147579
RightShoulder -19.855557 -41.669340 -18.117421
RightArm 50.328310 45.140289 47.408265
RightForeArm 5.132552 -0.000000 -0.975859
RightHand -1.262162 -0.000000 16.465993
RightHandThumb1 -24.326973 -0.000000 -32.862282
LeftUpLeg -26.625959 10.414721 0.421058
LeftLeg 12.198072 -0.000000 -0.000000
LeftFoot -11.447153 7.662569 -14.800956
LeftToeBase 8.253913 -0.000000 -0.000000
RightUpLeg -26.932905 -6.666704 -5.538298
RightLeg 10.615619 -0.000000 -0.000000
RightFoot -11.475679 -1.559626 19.432865
RightToeBase 13.972716 -0.000000 -0.000000
1946
root 3.650732 36.251124 2.556904 -133.849859 -87.276652 159.767746
Spine -25.386259 0.554037 -4.187954
Head 7.771459 7.910804 2.693149
LeftShoulder -5.538755 11.661117 31.020238
LeftArm 11.133140 -36.000302 -34.280278
LeftForeArm 23.197849 -0.000000 2.712655
LeftHand -11.621976 0.000000 -13.205190
LeftHandThumb1 -26.253704 0.000000 33.147579
RightShoulder -19.832645 -41.654197 -18.139107
RightArm 50.324565 45.158507 47.406993
RightForeArm 5.148609 0.000000 -0.983867
RightHand -1.277970 -0.000000 16.461517
RightHandThumb1 -24.326973 -0.000000 -32.862282
LeftUpLeg -26.620920 10.419476 0.415455
LeftLeg 12.190826 -0.000000 -0.000000
LeftFoot -11.443827 7.652568 -14.777265
LeftToeBase 8.282644 -0.000000 -0.000000
RightUpLeg -26.930481 -6.669301 -5.541014
RightLeg 10.621656 -0.000000 -0.000000
RightFoot -11.476446 -1.566247 19.440129
RightToeBase 13.969692 -0.000000 -0.000000
1947
root 3.651430 36.251224 2.558349 -133.772643 -87.283262 159.689025
Spine -25.375160 0.555760 -4.188353
Head 7.724690 7.853971 2.696991
LeftShoulder -5.538813 11.650487 31.030712
LeftArm 11.135733 -36.007448 -34.287232
LeftForeArm 23.190504 -0.000000 2.717790
LeftHand -11.612198 -0.000000 -13.204085
LeftHandThumb1 -26.253704 0.000000 33.147579
RightShoulder -19.828193 -41.625882 -18.162653
RightArm 50.307881 45.144627 47.395089
RightForeArm 5.121891 -0.000000 -0.983638
RightHand -1.290707 -0.000000 16.551030
RightHandThumb1 -24.326973 -0.000000 -32.862282
LeftUpLeg -26.619790 10.408056 0.417173
LeftLeg 12.188391 -0.000000 -0.000000
LeftFoot -11.438674 7.653651 -14.789807
LeftToeBase 8.235602 -0.000000 -0.000000
RightUpLeg -26.929413 -6.673563 -5.542664
RightLeg 10.623624 -0.000000 -0.000000
RightFoot -11.475999 -1.565931 19.433549
RightToeBase 13.971298 -0.000000 -0.000000
1948
root 3.651890 36.251518 2.559888 -133.690073 -87.287013 159.606619
Spine -25.366504 0.553883 -4.186129
Head 7.671906 7.800901 2.683042
LeftShoulder -5.540312 11.647250 31.026082
LeftArm 11.132243 -36.029676 -34.272569
LeftForeArm 23.228432 0.000000 2.718930
LeftHand -11.583355 -0.000000 -13.235279
LeftHandThumb1 -26.253704 0.000000 33.147579
RightShoulder -19.810214 -41.620192 -18.179554
RightArm 50.301917 45.167850 47.389669
RightForeArm 5.118691 -0.000000 -0.975279
RightHand -1.313253 -0.000000 16.426005
RightHandThumb1 -24.326973 -0.000000 -32.862282
LeftUpLeg -26.617327 10.417833 0.408451
LeftLeg 12.177369 -0.000000 -0.000000
LeftFoot -11.431975 7.639501 -14.776949
LeftToeBase 8.259476 -0.000000 -0.000000
RightUpLeg -26.929800 -6.671939 -5.547322
RightLeg 10.625730 -0.000000 -0.000000
RightFoot -11.482352 -1.582139 19.415443
RightToeBase 13.973358 -0.000000 -0.000000
1949
root 3.652093 36.251317 2.561744 -133.516189 -87.292228 159.430118
Spine -25.357756 0.542924 -4.181013
Head 7.634424 7.768177 2.673716
LeftShoulder -5.539994 11.630571 31.020341
LeftArm 11.108818 -36.027521 -34.241440
LeftForeArm 23.273504 -0.000000 2.730286
LeftHand -11.582731 -0.000000 -13.318280
LeftHandThumb1 -26.253704 0.000000 33.147579
RightShoulder -19.784686 -41.608948 -18.205589
RightArm 50.297465 45.184293 47.378866
RightForeArm 5.166956 0.000000 -0.968575
RightHand -1.351281 -0.000000 16.389661
RightHandThumb1 -24.326973 -0.000000 -32.862282
LeftUpLeg -26.612168 10.409134 0.401953
LeftLeg 12.167442 -0.000000 -0.000000
LeftFoot -11.424793 7.636130 -14.778513
LeftToeBase 8.271520 -0.000000 -0.000000
RightUpLeg -26.929895 -6.683228 -5.553851
RightLeg 10.632909 -0.000000 -0.000000
RightFoot -11.487602 -1.569957 19.442479
RightToeBase 13.981237 -0.000000 -0.000000
1950
root 3.652451 36.251144 2.562850 -133.223411 -87.303870 159.134107
Spine -25.346816 0.534083 -4.185650
Head 7.591387 7.700625 2.665449
LeftShoulder -5.537752 11.604827 31.040084
LeftArm 11.128671 -36.001615 -34.274437
LeftForeArm 23.050954 -0.000000 2.709494
LeftHand -11.662609 -0.000000 -13.072011
LeftHandThumb1 -26.253704 0.000000 33.147579
RightShoulder -19.771564 -41.593741 -18.219131
RightArm 50.286137 45.211378 47.376248
RightForeArm 5.131141 -0.000000 -0.950828
RightHand -1.339839 -0.000000 16.373260
RightHandThumb1 -24.326973 -0.000000 -32.862282
LeftUpLeg -26.611517 10.405045 0.394972
LeftLeg 12.166618 -0.000000 -0.000000
LeftFoot -11.419026 7.625203 -14.756532
LeftToeBase 8.270206 -0.000000 -0.000000
RightUpLeg -26.925512 -6.707450 -5.553418
RightLeg 10.635210 -0.000000 -0.000000
RightFoot -11.486634 -1.572720 19.426063
RightToeBase 13.956409 -0.000000 -0.000000
1951
root 3.652268 36.251461 2.563979 -133.114327 -87.310278 159.024730
Spine -25.344667 0.530703 -4.183032
Head 7.569097 7.671492 2.658433
LeftShoulder -5.533163 11.600845 31.035832
LeftArm 11.133180 -36.006282 -34.259818
LeftForeArm 23.051763 -0.000000 2.701102
LeftHand -11.701728 -0.000000 -13.049167
LeftHandThumb1 -26.253704 0.000000 33.147579
RightShoulder -19.753267 -41.568254 -18.242137
RightArm 50.266396 45.214876 47.347392
RightForeArm 5.141310 -0.000000 -0.952439
RightHand -1.296205 0.000000 16.438544
RightHandThumb1 -24.326973 -0.000000 -32.862282
LeftUpLeg -26.604944 10.405342 0.390919
LeftLeg 12.152901 -0.000000 -0.000000
LeftFoot -11.410258 7.610327 -14.754002
LeftToeBase 8.271363 -0.000000 -0.000000
RightUpLeg -26.924155 -6.725596 -5.551637
RightLeg 10.635231 -0.000000 -0.000000
RightFoot -11.481411 -1.559949 19.426476
RightToeBase 13.970975 -0.000000 -0.000000
